{"title":"Bloodshot 2013 DVDrip x264 AAC-MiLLENiUM","uid":9280696,"size":870212731,"categoryP":"video","categoryS":"movies","magnet":"?xt=urn:btih:8c9980c1a70012f9c5a402f793026a999ee375c3&amp;dn=Bloodshot+2013+DVDrip+x264+AAC-MiLLENiUM&amp;tr=udp%3A%2F%2Ftracker.openbittorrent.com%3A80&amp;tr=udp%3A%2F%2Fopen.demonii.com%3A1337&amp;tr=udp%3A%2F%2Ftracker.coppersurfer.tk%3A6969&amp;tr=udp%3A%2F%2Fexodus.desync.com%3A6969","seeders":1,"leechers":0,"uploader":"xxxlavalxxx","files":-1,"time":1385935510,"description":" &lt;a href=&quot;\nhttp://www.imdb.com/title/tt1196124/&quot; rel=&quot;nofollow&quot; target=&quot;_NEW&quot;&gt;\nhttp://www.imdb.com/title/tt1196124/&lt;/a&gt;\n\n\n\nA notorious Middle Eastern terrorist (Dourif) is plotting a major attack on the U.S. that includes detonating a powerful nuke in the heart of Los Angeles; the only thing standing in his way... \n\n\n\nDirector:\n Dietrich Johnston \n\nWriter:\n Dietrich Johnston \n\nStars:\n Brad Dourif, John Abiskaron, Deke Anderson\n\nGenres:\n  Action |  Comedy |  Horror \n\nCountry:\n USA \n\nLanguage:\n English \n\n\nGeneral &lt;a href=&quot;\nhttp://www.imdb.com/title/tt1196124/&quot; rel=&quot;nofollow&quot; target=&quot;_NEW&quot;&gt;\nhttp://www.imdb.com/title/tt1196124/&lt;/a&gt;\nComplete name                            : Bloodshot 2013 DVDrip x264 AAC-MiLLENiUM.mp4\nsource                                   : DVDR [thanks]\nFormat                                   : MPEG-4\nFormat profile                           : Base Media\nCodec ID                                 : isom\nFile size                                : 816 MiB\nDuration                                 : 1h 36mn\nOverall bit rate mode                    : Variable\nOverall bit rate                         : 1 187 Kbps\nEncoded date                             : UTC 2013-12-01 17:39:32\nTagged date                              : UTC 2013-12-01 17:39:32\n\nVideo\nID                                       : 1\nFormat                                   : AVC\nFormat/Info                              : Advanced Video Codec\nFormat profile                           : &lt;a class=&quot;__cf_email__&quot; href=&quot;/cdn-cgi/l/email-protection&quot; data-cfemail=&quot;2068494748606c140e11&quot;&gt;[email&amp;#160;protected]&lt;/a&gt;&lt;script cf-hash='f9e31' type=&quot;text/javascript&quot;&gt;\n/* &lt;![CDATA[ */!function(){try{var t=&quot;currentScript&quot;in document?document.currentScript:function(){for(var t=document.getElementsByTagName(&quot;script&quot;),e=t.length;e--;)if(t[e].getAttribute(&quot;cf-hash&quot;))return t[e]}();if(t&amp;&amp;t.previousSibling){var e,r,n,i,c=t.previousSibling,a=c.getAttribute(&quot;data-cfemail&quot;);if(a){for(e=&quot;&quot;,r=parseInt(a.substr(0,2),16),n=2;a.length-n;n+=2)i=parseInt(a.substr(n,2),16)^r,e+=String.fromCharCode(i);e=document.createTextNode(e),c.parentNode.replaceChild(e,c)}}}catch(u){}}();/* ]]&gt; */&lt;/script&gt;\nFormat settings, CABAC                   : Yes\nFormat settings, ReFrames                : 3 frames\nCodec ID                                 : avc1\nCodec ID/Info                            : Advanced Video Coding\nDuration                                 : 1h 36mn\nBit rate mode                            : Variable\nBit rate                                 : 838 Kbps\nMaximum bit rate                         : 40.0 Mbps\nWidth                                    : 720 pixels\nHeight                                   : 384 pixels\nDisplay aspect ratio                     : 1.875\nFrame rate mode                          : Constant\nFrame rate                               : 29.970 fps\nColor space                              : YUV\nChroma subsampling                       : 4:2:0\nBit depth                                : 8 bits\nScan type                                : Progressive\nBits/(Pixel*Frame)                       : 0.101\nStream size                              : 576 MiB (71%)\nWriting library                          : x264 core 140 r2377 1ca7bb9\nEncoded date                             : UTC 2013-12-01 17:39:32\nTagged date                              : UTC 2013-12-01 17:39:51\nColor primaries                          : BT.709-5, BT.1361, IEC 61966-2-4, SMPTE RP177\nTransfer characteristics                 : BT.709-5, BT.1361\nMatrix coefficients                      : BT.709-5, BT.1361, IEC 61966-2-4 709, SMPTE RP177\n\nAudio\nID                                       : 2\nFormat                                   : AAC\nFormat/Info                              : Advanced Audio Codec\nFormat profile                           : LC\nCodec ID                                 : 40\nDuration                                 : 1h 36mn\nBit rate mode                            : Variable\nBit rate                                 : 345 Kbps\nMaximum bit rate                         : 395 Kbps\nChannel(s)                               : 6 channels\nChannel positions                        : Front: L C R, Side: L R, LFE\nSampling rate                            : 48.0 KHz\nCompression mode                         : Lossy\nStream size                              : 237 MiB (29%)\nEncoded date                             : UTC 2013-12-01 15:52:07\nTagged date                              : UTC 2013-12-01 17:39:51\n\n\n\nscreens\n\n\n &lt;a href=&quot;\nhttp://i.imgur.com/Xtqfiuw.jpg&quot; rel=&quot;nofollow&quot; target=&quot;_NEW&quot;&gt;\nhttp://i.imgur.com/Xtqfiuw.jpg&lt;/a&gt; &lt;a href=&quot;\nhttp://i.imgur.com/dEuOUsJ.jpg&quot; rel=&quot;nofollow&quot; target=&quot;_NEW&quot;&gt;\nhttp://i.imgur.com/dEuOUsJ.jpg&lt;/a&gt; &lt;a href=&quot;\nhttp://i.imgur.com/6ooh4wj.jpg&quot; rel=&quot;nofollow&quot; target=&quot;_NEW&quot;&gt;\nhttp://i.imgur.com/6ooh4wj.jpg&lt;/a&gt; &lt;a href=&quot;\nhttp://i.imgur.com/jiKr4wQ.jpg&quot; rel=&quot;nofollow&quot; target=&quot;_NEW&quot;&gt;\nhttp://i.imgur.com/jiKr4wQ.jpg&lt;/a&gt; &lt;a href=&quot;\nhttp://i.imgur.com/EGKVhMP.jpg&quot; rel=&quot;nofollow&quot; target=&quot;_NEW&quot;&gt;\nhttp://i.imgur.com/EGKVhMP.jpg&lt;/a&gt; &lt;a href=&quot;\nhttp://i.imgur.com/1yfTr2F.jpg&quot; rel=&quot;nofollow&quot; target=&quot;_NEW&quot;&gt;\nhttp://i.imgur.com/1yfTr2F.jpg&lt;/a&gt;","torrent":{"xt":"urn:btih:8c9980c1a70012f9c5a402f793026a999ee375c3","amp;dn":"Bloodshot+2013+DVDrip+x264+AAC-MiLLENiUM","amp;tr":["udp%3A%2F%2Ftracker.openbittorrent.com%3A80","udp%3A%2F%2Fopen.demonii.com%3A1337","udp%3A%2F%2Ftracker.coppersurfer.tk%3A6969","udp%3A%2F%2Fexodus.desync.com%3A6969"],"infoHash":"8c9980c1a70012f9c5a402f793026a999ee375c3","infoHashBuffer":{"type":"Buffer","data":[140,153,128,193,167,0,18,249,197,164,2,247,147,2,106,153,158,227,117,195]},"announce":[],"urlList":[]}}